# xmcd
#
# Track frame offsets: 
#        150
#        40869
#        65972
#        91444
#        127975
#
# Disc length: 2567 seconds
#
# Revision: 1
# Processed by: cddbd v1.5.2PL0 Copyright (c) Steve Scherf et al.
# Submitted via: ExactAudioCopy v1.0b3
#
DISCID=420a0505
DTITLE=MODRÝ EFECT and JOČR - Nová Syntéza
DYEAR=1971
DGENRE=Progressive Rock
TTITLE0=Má hra
TTITLE1=Směr jihovýchod
TTITLE2=Popínavý břečťan
TTITLE3=Blues modrého efektu
TTITLE4=Nová syntéza
EXTD=YEAR: 1971
EXTT0=
EXTT1=
EXTT2=
EXTT3=
EXTT4=
PLAYORDER=
